<?xml version="1.0" encoding="UTF-8" standalone="no"?>
<!-- Created with Inkscape (http://www.inkscape.org/) -->

<svg
   width="136.87428mm"
   height="18.469286mm"
   viewBox="0 0 136.87428 18.469286"
   version="1.1"
   id="svg1"
   xml:space="preserve"
   xmlns="http://www.w3.org/2000/svg"
   xmlns:svg="http://www.w3.org/2000/svg"><defs
     id="defs1" /><g
     id="layer1"
     transform="translate(-57.269079,-282.12558)"><g
       id="g45230"
       transform="translate(7.6071151,141.00331)"><path
         style="fill:#e7372e"
         d="m 54.922951,159.47993 c -2.304608,-0.20581 -4.037827,-1.46866 -4.873717,-3.55106 -0.368062,-0.91693 -0.388736,-1.19762 -0.387203,-5.25691 0.0013,-3.52858 0.05278,-4.4554 0.290437,-5.23169 0.418282,-1.36631 1.202428,-2.49845 2.144261,-3.09587 1.602625,-1.01657 2.025057,-1.07819 7.892724,-1.15138 l 5.360333,-0.0669 v 1.89976 1.89976 h -4.342899 c -5.006626,0 -5.742753,0.12487 -6.61892,1.12277 l -0.530736,0.60447 v 3.70458 c 0,3.41485 0.02704,3.74833 0.345765,4.26404 0.623639,1.00907 1.270034,1.18959 4.476653,1.25023 l 2.849815,0.0539 -0.01956,-1.7692 -0.01956,-1.7692 -1.672424,0.0311 -1.672424,0.0311 v -1.87505 -1.87506 h 3.776084 3.776085 l -0.04529,5.40882 -0.04529,5.40882 -4.717093,0.0373 c -2.594402,0.0205 -5.279569,-0.013 -5.967038,-0.0743 z m 28.512015,0.064 -2.2412,-0.0476 -1.94662,-3.17334 -1.94663,-3.17334 -2.24457,0.0477 -2.24457,0.0477 v 3.13054 3.13054 l -2.10126,-1.1e-4 -2.10125,-1e-4 v -9.1769 -9.17689 l 5.87493,0.003 c 6.48669,0.003 7.65083,0.13039 9.04381,0.98741 0.8731,0.53716 1.78376,1.77371 2.09306,2.84207 0.34404,1.18837 0.2819,3.82132 -0.11602,4.91561 -0.45101,1.24026 -1.62633,2.43586 -2.80665,2.85508 -0.4847,0.17214 -0.88126,0.35848 -0.88126,0.41407 0,0.0556 0.88868,1.51592 1.97484,3.24517 1.08616,1.72925 1.95454,3.15153 1.92972,3.16063 -0.0248,0.009 -1.05366,-0.005 -2.28633,-0.0311 z m -2.32867,-10.59532 c 0.18901,-0.24028 0.3944,-0.66793 0.45643,-0.95032 0.16338,-0.74388 -0.0715,-2.15525 -0.43306,-2.60194 -0.3067,-0.37894 -0.3734,-0.38489 -4.3149,-0.38489 h -4.00339 l -0.048,2.18702 -0.048,2.18702 h 4.02365 4.02364 z m 15.63342,1.42319 1.9e-4,-9.21978 4.845744,0.003 c 5.34499,0.003 6.42361,0.13402 8.2825,1.0039 1.87563,0.87772 2.98962,2.16346 3.58612,4.13904 0.3997,1.32378 0.39807,6.86629 -0.002,8.23566 -0.61114,2.08965 -2.2722,3.74544 -4.50676,4.49249 -1.05691,0.35334 -1.5512,0.38841 -6.6735,0.47354 l -5.532054,0.0919 z m 10.413354,5.27358 c 0.95861,-0.28467 1.9999,-1.26211 2.23287,-2.09594 0.0731,-0.26182 0.13203,-1.74965 0.13085,-3.30629 -0.002,-2.69419 -0.0227,-2.86711 -0.42922,-3.5968 -0.33003,-0.59236 -0.65797,-0.88468 -1.4432,-1.28648 -1.00894,-0.51626 -1.03597,-0.51994 -3.82044,-0.51994 h -2.80431 l 0.002,5.4461 c 9.7e-4,2.99536 0.003,5.4847 0.004,5.53187 10e-4,0.0472 1.18494,0.0858 2.63012,0.0858 1.84064,0 2.88806,-0.0773 3.4973,-0.25828 z m 25.46977,3.89795 c -2.09158,-0.0478 -2.11003,-0.0518 -1.99497,-0.42883 0.1546,-0.50659 6.15566,-16.54649 6.48979,-17.34617 l 0.26109,-0.62487 2.77925,0.0472 2.77925,0.0472 1.35546,3.60214 c 0.7455,1.98118 2.2309,5.95641 3.30089,8.83383 1.06999,2.87743 2.00045,5.36907 2.06768,5.53699 0.11406,0.28487 -0.0296,0.30208 -2.1479,0.25729 l -2.27014,-0.048 -0.67251,-1.89791 -0.67251,-1.89792 -3.29566,0.0434 c -1.8126,0.0239 -3.53599,0.0481 -3.82974,0.054 -0.52276,0.0103 -0.54775,0.0497 -1.17788,1.85452 -0.35409,1.01417 -0.69267,1.88254 -0.75239,1.92972 -0.0597,0.0472 -1.0586,0.0641 -2.21971,0.0375 z m 9.91576,-7.48488 c 0,-0.21592 -2.2676,-6.55294 -2.38791,-6.67325 -0.079,-0.079 -0.26022,0.19059 -0.40281,0.599 -1.06977,3.06413 -2.01214,5.87285 -2.01214,5.99717 0,0.0817 1.08064,0.14862 2.40143,0.14862 1.32078,0 2.40143,-0.0322 2.40143,-0.0715 z m -53.689114,-1.72954 v -9.17689 h 2.14414 2.14413 v 9.17689 9.1769 h -2.14413 -2.14414 z m 27.652494,1.92972 c 0.0631,-7.05215 0.0754,-7.2736 0.45402,-8.22932 0.25933,-0.65454 0.62622,-1.18509 1.09987,-1.59053 1.25791,-1.07672 1.80706,-1.16535 7.7156,-1.24522 l 5.27457,-0.0713 v 1.88962 1.88962 l -4.81823,0.055 -4.81823,0.055 -0.32769,0.40495 c -0.26762,0.33071 -0.32769,0.68446 -0.32769,1.92972 v 1.52477 h 4.80286 4.80286 v 1.80108 1.80107 h -4.80286 -4.80286 v 3.51638 3.51638 h -2.15855 -2.15855 z m 34.95621,-1.92972 v -9.17689 l 2.35855,0.003 c 1.53248,0.002 2.50874,0.0773 2.78737,0.21602 0.53087,0.26428 1.00604,1.00077 4.97439,7.71 l 3.17332,5.36508 0.0449,-6.64681 0.0449,-6.64682 h 2.05635 2.05635 v 9.17689 9.1769 h -2.7179 c -2.376,0 -2.75031,-0.0378 -2.97551,-0.30018 -0.24059,-0.28036 -2.27939,-3.73304 -5.8953,-9.98358 l -1.53338,-2.65063 -0.1087,1.36415 c -0.0598,0.75029 -0.0984,3.66043 -0.0858,6.46698 l 0.0229,5.10282 -2.10126,2.2e-4 -2.10125,2.2e-4 z m 20.58369,7.38451 v -1.80976 l 4.24538,-0.002 c 2.33496,-0.001 4.53035,-0.049 4.87863,-0.10658 1.01554,-0.16791 1.33936,-0.59306 1.33936,-1.75846 0,-1.58279 -0.0772,-1.61768 -3.91051,-1.76842 -4.29797,-0.169 -5.23063,-0.38596 -6.24359,-1.45237 -0.83781,-0.88203 -1.05187,-1.66292 -1.05041,-3.83187 0.002,-2.24706 0.18679,-3.08748 0.89675,-4.06754 1.07479,-1.48371 2.47425,-1.76143 8.88486,-1.76321 l 4.66644,-0.001 0.10322,0.55748 c 0.0568,0.30661 0.0796,1.13639 0.0507,1.84395 l -0.0526,1.28648 -4.7751,0.0858 -4.7751,0.0858 -0.41371,0.48128 c -0.31454,0.36592 -0.4137,0.68118 -0.4137,1.31533 0,1.02932 0.10967,1.33042 0.57765,1.58596 0.22345,0.12201 1.76732,0.24406 3.96791,0.31368 4.52559,0.14317 5.20322,0.37854 6.14892,2.1358 0.32772,0.60896 0.36925,0.95618 0.36925,3.08755 0,1.96668 -0.0558,2.51346 -0.30813,3.02024 -0.43278,0.86914 -1.27443,1.68261 -2.17907,2.10611 -0.72737,0.34051 -1.09585,0.36436 -6.38951,0.41356 l -5.61763,0.0522 z"
         id="path45231" /></g></g></svg>
