<?xml version="1.0" encoding="UTF-8"?>
<!DOCTYPE svg PUBLIC "-//W3C//DTD SVG 1.1//EN" "http://www.w3.org/Graphics/SVG/1.1/DTD/svg11.dtd">
<svg xmlns="http://www.w3.org/2000/svg" version="1.1" width="1000px" height="468px" style="shape-rendering:geometricPrecision; text-rendering:geometricPrecision; image-rendering:optimizeQuality; fill-rule:evenodd; clip-rule:evenodd" xmlns:xlink="http://www.w3.org/1999/xlink">
<g><path style="opacity:0.988" fill="#000000" d="M 325.5,-0.5 C 412.167,-0.5 498.833,-0.5 585.5,-0.5C 555.815,32.0177 521.149,57.851 481.5,77C 453.375,88.821 424.208,95.6543 394,97.5C 378.833,119.333 363.667,141.167 348.5,163C 380.172,163.167 411.839,163.667 443.5,164.5C 420.746,197.675 397.746,230.675 374.5,263.5C 342.172,264.333 309.838,264.833 277.5,265C 252.972,299.361 228.639,333.861 204.5,368.5C 158.833,369.833 113.167,369.833 67.5,368.5C 153.263,245.296 239.263,122.296 325.5,-0.5 Z"/></g>
<g><path style="opacity:0.977" fill="#ed1e23" d="M 693.5,-0.5 C 701.833,-0.5 710.167,-0.5 718.5,-0.5C 811.998,3.79869 905.665,7.79869 999.5,11.5C 999.5,12.1667 999.5,12.8333 999.5,13.5C 903.471,17.494 807.471,21.994 711.5,27C 801.533,30.2613 891.533,34.0946 981.5,38.5C 979.833,38.8333 978.167,39.1667 976.5,39.5C 880.171,44.0604 783.838,48.5604 687.5,53C 779.524,56.3676 871.524,60.201 963.5,64.5C 961.577,65.3078 959.577,65.8078 957.5,66C 862.169,70.3938 766.836,74.7271 671.5,79C 761.846,82.8205 852.18,86.6538 942.5,90.5C 943.167,90.8333 943.833,91.1667 944.5,91.5C 848.526,96.4534 752.526,100.953 656.5,105C 743.136,109.119 829.802,112.785 916.5,116C 919.882,116.176 923.215,116.676 926.5,117.5C 830.173,122.454 733.839,127.288 637.5,132C 727.533,135.261 817.533,139.095 907.5,143.5C 904.215,144.324 900.882,144.824 897.5,145C 803.162,149.243 708.829,153.576 614.5,158C 706.186,161.447 797.852,165.281 889.5,169.5C 887.922,170.298 886.256,170.798 884.5,171C 788.503,175.394 692.503,179.727 596.5,184C 688.21,187.617 779.877,191.617 871.5,196C 775.322,201.357 678.989,206.024 582.5,210C 672.511,213.994 762.511,218.16 852.5,222.5C 757.12,227.378 661.787,232.212 566.5,237C 655.867,240.261 745.201,244.095 834.5,248.5C 831.553,249.321 828.553,249.821 825.5,250C 719.837,255.121 614.17,259.788 508.5,264C 570.053,175.717 631.72,87.5502 693.5,-0.5 Z"/></g>
<g><path style="opacity:0.975" fill="#ed1e23" d="M 611.5,260.5 C 679.917,264.963 748.25,269.796 816.5,275C 752.624,279.91 688.624,284.577 624.5,289C 682.248,292.439 739.914,296.605 797.5,301.5C 733.223,306.596 668.889,311.096 604.5,315C 662.516,319.012 720.516,323.179 778.5,327.5C 778.291,328.086 777.957,328.586 777.5,329C 714.13,332.936 650.797,337.269 587.5,342C 645.248,345.439 702.914,349.605 760.5,354.5C 687.033,359.852 613.533,364.852 540,369.5C 536.199,369.585 535.532,368.252 538,365.5C 562.51,330.471 587.01,295.471 611.5,260.5 Z"/></g>
<g><path style="opacity:0.934" fill="#000000" d="M -0.5,466.5 C -0.5,465.5 -0.5,464.5 -0.5,463.5C 14.5129,443.331 29.1796,422.831 43.5,402C 57.5119,401.167 71.5119,401.334 85.5,402.5C 78.1655,413.25 67.9989,418.584 55,418.5C 52.888,422.278 50.388,425.778 47.5,429C 53.1958,429.17 58.8624,429.67 64.5,430.5C 61.0276,435.806 57.3609,440.972 53.5,446C 47.5,446.333 41.5,446.667 35.5,447C 31.2193,453.615 26.5526,459.948 21.5,466C 14.1742,466.5 6.8409,466.666 -0.5,466.5 Z"/></g>
<g><path style="opacity:0.917" fill="#000000" d="M 491.5,404.5 C 498.2,404.17 504.866,404.503 511.5,405.5C 501.305,419.862 491.305,434.362 481.5,449C 485.541,449.173 489.541,449.673 493.5,450.5C 489.956,455.755 486.29,460.921 482.5,466C 466.823,466.833 451.156,466.666 435.5,465.5C 438.972,460.194 442.639,455.028 446.5,450C 450.5,449.667 454.5,449.333 458.5,449C 462.588,442.823 466.922,436.823 471.5,431C 466.833,430.667 462.167,430.333 457.5,430C 460.377,425.745 463.377,421.578 466.5,417.5C 476.943,417.021 485.277,412.687 491.5,404.5 Z"/></g>
<g><path style="opacity:0.647" fill="#000000" d="M 534.5,404.5 C 538.5,404.5 542.5,404.5 546.5,404.5C 546.5,405.5 546.5,406.5 546.5,407.5C 545.167,407.5 543.833,407.5 542.5,407.5C 542.666,411.514 542.499,415.514 542,419.5C 541,420.833 540,420.833 539,419.5C 538.501,415.514 538.334,411.514 538.5,407.5C 537.167,407.5 535.833,407.5 534.5,407.5C 534.5,406.5 534.5,405.5 534.5,404.5 Z"/></g>
<g><path style="opacity:0.672" fill="#000000" d="M 547.5,404.5 C 549.144,404.286 550.644,404.62 552,405.5C 552.803,408.244 553.803,410.911 555,413.5C 556.45,410.992 557.617,408.325 558.5,405.5C 560.045,404.548 561.712,404.215 563.5,404.5C 563.5,409.5 563.5,414.5 563.5,419.5C 562.167,419.5 560.833,419.5 559.5,419.5C 559.449,411.627 558.782,411.627 557.5,419.5C 555.856,419.714 554.356,419.38 553,418.5C 551.056,410.648 550.222,410.981 550.5,419.5C 549.5,419.5 548.5,419.5 547.5,419.5C 547.5,414.5 547.5,409.5 547.5,404.5 Z"/></g>
<g><path style="opacity:0.917" fill="#000000" d="M 352.5,408.5 C 359.532,408.17 366.532,408.503 373.5,409.5C 360.361,428.472 347.028,447.305 333.5,466C 326.808,466.831 320.142,466.664 313.5,465.5C 326.263,446.298 339.263,427.298 352.5,408.5 Z"/></g>
<g><path style="opacity:0.922" fill="#000000" d="M 84.5,467.5 C 81.5,467.5 78.5,467.5 75.5,467.5C 65.8233,464.828 62.3233,458.495 65,448.5C 72.2892,431.218 85.2892,421.551 104,419.5C 118.565,419.622 123.565,426.622 119,440.5C 112,455.342 100.5,464.342 84.5,467.5 Z M 95.5,433.5 C 102.133,434.115 103.299,437.115 99,442.5C 96.8333,445.333 94.3333,447.833 91.5,450C 83.0556,453.55 81.2222,451.05 86,442.5C 89.0623,439.268 92.229,436.268 95.5,433.5 Z"/></g>
<g><path style="opacity:0.909" fill="#000000" d="M 172.5,420.5 C 177.437,419.603 181.437,421.103 184.5,425C 179.5,430 174.5,435 169.5,440C 166.64,438.92 163.64,437.753 160.5,436.5C 157.716,437.392 155.05,438.558 152.5,440C 145.974,448.359 139.641,456.859 133.5,465.5C 126.5,466.833 119.5,466.833 112.5,465.5C 122.5,451.167 132.5,436.833 142.5,422.5C 149.5,421.167 156.5,421.167 163.5,422.5C 162.494,423.396 162.494,424.062 163.5,424.5C 166.482,422.836 169.482,421.503 172.5,420.5 Z"/></g>
<g><path style="opacity:0.911" fill="#000000" d="M 226.5,420.5 C 231.166,420.58 234.666,422.58 237,426.5C 244.221,420.73 252.055,419.563 260.5,423C 264.222,427.603 264.389,432.436 261,437.5C 254.167,447 247.333,456.5 240.5,466C 233.808,466.831 227.142,466.664 220.5,465.5C 226.833,456.167 233.167,446.833 239.5,437.5C 238.758,436.713 237.925,436.047 237,435.5C 234.828,436.585 232.828,437.919 231,439.5C 224.956,448.421 218.79,457.254 212.5,466C 205.808,466.831 199.142,466.664 192.5,465.5C 198.471,456.363 204.638,447.363 211,438.5C 211.27,437.068 210.604,436.068 209,435.5C 206.532,436.104 204.532,437.438 203,439.5C 196.833,448.333 190.667,457.167 184.5,466C 177.808,466.831 171.142,466.664 164.5,465.5C 174.377,450.913 184.377,436.413 194.5,422C 201.5,421.333 208.5,421.333 215.5,422C 214.289,422.893 214.289,423.726 215.5,424.5C 219.139,422.735 222.806,421.401 226.5,420.5 Z"/></g>
<g><path style="opacity:0.921" fill="#000000" d="M 373.5,467.5 C 370.833,467.5 368.167,467.5 365.5,467.5C 357.565,463.023 355.398,456.356 359,447.5C 367.22,428.268 381.72,419.434 402.5,421C 404.286,421.785 405.786,422.951 407,424.5C 407.374,423.584 407.874,422.75 408.5,422C 415.524,421.169 422.524,421.336 429.5,422.5C 419.623,437.087 409.623,451.587 399.5,466C 396.333,466.167 393.167,466.333 390,466.5C 386.397,466.45 383.064,465.783 380,464.5C 377.706,465.422 375.539,466.422 373.5,467.5 Z M 392.5,433.5 C 394.75,433.951 396.084,435.285 396.5,437.5C 394.17,443.668 390.17,448.501 384.5,452C 377.174,452.521 375.674,449.688 380,443.5C 383.512,439.134 387.679,435.801 392.5,433.5 Z"/></g>
<g><path style="opacity:0.919" fill="#000000" d="M 286.5,467.5 C 281.833,467.5 277.167,467.5 272.5,467.5C 263.128,465.105 259.628,459.105 262,449.5C 267.673,440.153 273.839,431.153 280.5,422.5C 287.811,421.335 295.144,421.169 302.5,422C 295.76,431.07 289.427,440.403 283.5,450C 283.613,451.28 284.28,452.113 285.5,452.5C 288.094,451.408 290.261,449.741 292,447.5C 297.639,439.028 303.472,430.695 309.5,422.5C 316.5,421.167 323.5,421.167 330.5,422.5C 323.333,432.833 316.167,443.167 309,453.5C 303.084,460.954 295.584,465.621 286.5,467.5 Z"/></g>
</svg>
