<?xml version="1.0" encoding="UTF-8" standalone="no"?>
<!-- Created with Inkscape (http://www.inkscape.org/) -->

<svg
   width="210.54259mm"
   height="183.93381mm"
   viewBox="0 0 210.54259 183.93381"
   version="1.1"
   id="svg1"
   xml:space="preserve"
   xmlns="http://www.w3.org/2000/svg"
   xmlns:svg="http://www.w3.org/2000/svg"><defs
     id="defs1" /><g
     id="layer1"
     transform="translate(-247.90723,-48.148742)"><path
       style="clip-rule:evenodd;fill:#ffffff;fill-opacity:1;fill-rule:evenodd;stroke-width:0.264583;image-rendering:optimizeQuality;shape-rendering:geometricPrecision;text-rendering:geometricPrecision"
       d="m 352.78675,231.7739 c -0.87313,-0.20576 -1.71358,-0.38174 -1.86767,-0.39108 -0.15409,-0.009 -0.48624,-0.16766 -0.73811,-0.35184 -0.40515,-0.29625 -0.42306,-0.49755 -0.15536,-1.7458 0.29883,-1.3934 0.31293,-1.40901 1.13499,-1.25788 0.4578,0.0842 2.14209,0.23013 3.74282,0.32438 3.28808,0.19362 4.50572,-0.11486 5.31225,-1.34575 0.65294,-0.99653 0.64235,-2.84293 -0.0206,-3.58484 -0.29104,-0.32573 -1.53138,-1.07945 -2.7563,-1.67495 -2.66866,-1.29741 -3.83032,-2.32733 -4.22383,-3.74486 -0.94417,-3.40093 0.58687,-7.166 3.48435,-8.56866 1.96067,-0.94914 3.67588,-1.13549 6.37992,-0.6931 2.77715,0.45434 4.3941,0.87505 4.38679,1.14136 -0.0198,0.71985 -0.76448,2.82127 -0.98388,2.77622 -0.14893,-0.0306 -1.57072,-0.18558 -3.15954,-0.34444 -3.21141,-0.32104 -3.946,-0.17981 -5.17803,0.99555 -0.58941,0.56229 -0.72761,0.92723 -0.72761,1.92143 0,1.53876 0.38796,1.92037 3.57188,3.5134 3.47721,1.73977 4.10223,2.58784 4.09956,5.56242 -0.003,3.4127 -1.17867,5.50783 -3.82008,6.8082 -1.54842,0.76229 -2.05171,0.8727 -4.32324,0.94851 -1.59118,0.0531 -3.17577,-0.0568 -4.15832,-0.28827 z m 35.76304,0.0228 c -1.43626,-0.40463 -2.39842,-1.04201 -3.20294,-2.12183 -0.47043,-0.63137 -0.53763,-1.06619 -0.4881,-3.15865 0.0461,-1.94791 0.41208,-3.91369 1.85568,-9.96712 l 1.79829,-7.54062 2.21181,-0.0774 c 1.73657,-0.0607 2.18326,-0.003 2.07897,0.26879 -0.4684,1.22069 -3.7128,15.91567 -3.73793,16.93053 -0.0429,1.73247 0.43018,2.13794 2.66036,2.27994 2.20146,0.14021 3.24601,-0.35025 4.0549,-1.90386 0.31324,-0.60163 1.42449,-4.7848 2.46943,-9.29595 l 1.89992,-8.20208 2.20263,-0.0772 c 2.01364,-0.0706 2.19022,-0.0365 2.05782,0.39687 -0.0797,0.26072 -0.98618,4.1034 -2.01451,8.53925 -1.94955,8.40986 -2.5155,10.08298 -3.97168,11.74149 -1.46815,1.67211 -3.15352,2.3532 -6.08248,2.45803 -1.58642,0.0568 -2.98519,-0.0429 -3.79217,-0.27024 z M 249.46696,220.38552 v -11.50937 h 3.69459 3.69458 l 0.0757,2.57968 0.0757,2.57969 h 1.32291 1.32292 l 0.0806,-1.25677 0.0807,-1.25677 h 1.30842 1.30842 v -1.32292 -1.32291 h 3.70416 3.70417 v 3.68966 3.68967 l -1.25677,0.0806 -1.25677,0.0806 -0.0189,1.19063 -0.0189,1.19062 -1.23783,0.0806 -1.23783,0.0806 v 1.44071 1.44071 h 1.28623 c 1.22675,0 1.28042,0.0304 1.16072,0.65656 -0.069,0.36113 -0.0502,0.95645 0.0417,1.32292 0.14759,0.58806 0.30654,0.66635 1.35282,0.66635 h 1.18559 v 3.70417 3.70417 h -3.70417 -3.70417 v -1.32292 -1.32292 h -1.32291 -1.32292 v -1.33675 -1.33673 l -1.38906,0.08 -1.38906,0.08 -0.0757,2.57969 -0.0757,2.57969 h -3.69459 -3.69459 z m 23.54792,0 v -11.50937 h 3.70417 3.70416 v 11.50937 11.50938 h -3.70416 -3.70417 z m 12.91293,10.25261 -0.0806,-1.25678 -1.25677,-0.0806 -1.25677,-0.0806 v -8.83454 -8.83454 l 1.25677,-0.0806 1.25677,-0.0806 0.0806,-1.25677 0.0806,-1.25677 h 6.20321 6.20321 v 3.70416 3.70417 h -3.84334 -3.84335 l 0.073,4.0349 0.073,4.03489 3.83645,0.0724 3.83646,0.0724 -0.0801,3.6979 -0.0801,3.6979 h -6.18926 -6.18927 z m 15.66207,-10.25261 v -11.50937 h 3.69458 3.69459 l 0.0757,2.57968 0.0757,2.57969 h 1.32292 1.32292 l 0.0801,-1.24285 0.0801,-1.24283 1.24284,-0.0801 1.24284,-0.0801 0.0806,-1.25677 0.0806,-1.25677 h 3.68967 3.68967 v 3.68966 3.68967 l -1.25677,0.0806 -1.25677,0.0806 -0.0801,1.24286 -0.0801,1.24282 -1.24285,0.0801 -1.24284,0.0801 v 1.32292 1.32292 l 1.24284,0.0801 1.24285,0.0801 0.0801,1.24283 0.0801,1.24285 1.25677,0.0807 1.25677,0.0806 v 3.68967 3.68967 h -3.70418 -3.70417 v -1.32292 -1.32292 h -1.32291 -1.32292 v -1.32291 -1.32292 h -1.45521 -1.45521 v 2.64583 2.64584 h -3.70416 -3.70417 z m 34.39583,0 v -11.50937 h 0.66146 0.66146 v 11.50937 11.50938 h -0.66146 -0.66146 z m 28.77738,11.02426 c 0.0928,-0.24251 2.40001,-5.38202 5.12704,-11.42113 l 4.95826,-10.98021 3.88758,-0.0734 3.88758,-0.0734 -0.19791,7.87863 c -0.10885,4.33324 -0.27371,9.48598 -0.36632,11.45051 l -0.1684,3.57187 -1.98438,0.0337 -1.98437,0.0336 -0.1323,-2.01803 -0.13229,-2.01803 h -3.43958 -3.43958 l -0.98251,2.02222 -0.98248,2.02223 -2.10957,0.006 c -1.8614,0.006 -2.08973,-0.0457 -1.94077,-0.43471 z m 13.38154,-11.2227 c 0.0948,-2.07367 0.1729,-4.64224 0.17343,-5.70793 0.003,-3.17116 -0.52903,-2.59652 -3.36388,3.64297 -1.35078,2.97307 -2.45597,5.50227 -2.45597,5.62043 0,0.11817 1.23163,0.21485 2.73695,0.21485 h 2.73698 z m 24.7736,11.41246 c -0.004,-0.20135 1.1535,-5.40705 2.57198,-11.56819 l 2.57906,-11.20209 5.03478,0.0896 c 4.74887,0.0845 5.10963,0.12716 6.35325,0.75105 1.77933,0.89265 2.36755,1.95035 2.34675,4.21976 -0.0196,2.1428 -0.65598,3.50099 -2.33124,4.97565 -0.66093,0.58176 -1.20169,1.12014 -1.20169,1.19639 0,0.0762 0.43117,0.56978 0.95814,1.09675 l 0.95813,0.95813 -0.11615,2.30947 c -0.13255,2.63602 -0.50776,3.54598 -2.0987,5.08992 -1.88701,1.83127 -3.25702,2.16332 -9.55715,2.31635 -4.56078,0.11076 -5.49129,0.0714 -5.49716,-0.23278 z m 11.07141,-3.94602 c 1.13249,-0.69046 2.01609,-2.59871 1.78173,-3.84789 -0.26313,-1.40261 -0.94287,-1.70032 -3.88234,-1.70032 h -2.56016 l -0.66374,2.84308 c -0.36504,1.56369 -0.60819,2.93291 -0.54033,3.04271 0.0679,0.1098 1.21767,0.19918 2.55516,0.19865 1.97409,0 2.59702,-0.10173 3.30968,-0.53623 z m 1.85028,-9.74598 c 1.62999,-1.16065 2.12614,-3.53968 0.97769,-4.68813 -0.6173,-0.61729 -0.80883,-0.65484 -2.97656,-0.58327 l -2.3168,0.0765 -0.62423,2.57812 c -0.34333,1.41796 -0.54904,2.77403 -0.45715,3.0135 0.25651,0.66844 4.3207,0.36975 5.39705,-0.39669 z m 5.7468,13.12746 c 0.0905,-0.47294 1.25886,-5.6224 2.59628,-11.44323 l 2.43165,-10.58333 6.54386,-0.0708 c 5.35379,-0.0579 6.54386,-0.006 6.54386,0.28663 0,0.19653 -0.13496,1.0293 -0.2999,1.8506 l -0.29988,1.49323 -4.49876,0.0722 -4.49877,0.0722 -0.61449,2.51354 c -0.33798,1.38244 -0.61937,2.66237 -0.62532,2.84427 -0.008,0.24834 0.85437,0.33073 3.46186,0.33073 h 3.47266 l -0.1691,0.84547 c -0.093,0.46503 -0.29014,1.29503 -0.43809,1.84447 l -0.26901,0.99898 -3.48125,0.0738 -3.48126,0.0738 -0.60512,2.38125 c -0.99434,3.91298 -1.3539,3.57188 3.76531,3.57188 4.04669,0 4.37369,0.0356 4.25643,0.46302 -0.0699,0.25466 -0.26837,1.0881 -0.44111,1.85208 l -0.31407,1.38907 h -6.60018 -6.60019 z m 16.12562,-0.12144 c 0.0972,-0.55169 1.26939,-5.70601 2.60477,-11.45408 l 2.42797,-10.45104 3.43958,-0.0767 c 5.93215,-0.13226 8.08332,0.52406 9.39023,2.86504 0.56033,1.00373 0.65791,1.51696 0.65182,3.42935 -0.004,1.23692 -0.16322,2.7252 -0.35396,3.30729 -0.56875,1.73556 -1.92537,3.53547 -3.41526,4.53117 -0.9882,0.66046 -1.36081,1.06561 -1.26657,1.37727 0.0734,0.24286 0.43516,1.75125 0.80381,3.35197 0.36867,1.60073 0.73485,3.18757 0.81375,3.52632 0.14248,0.61172 0.12854,0.61531 -2.03811,0.52917 l -2.18157,-0.0867 -0.34324,-1.71979 c -0.18878,-0.94588 -0.5333,-2.58299 -0.7656,-3.63802 l -0.42238,-1.91823 h -1.79684 c -1.64632,0 -1.80835,0.0499 -1.93418,0.59532 -0.0755,0.32742 -0.45366,1.97876 -0.84027,3.66966 l -0.70294,3.07435 -2.12392,0.0454 -2.12392,0.0453 z m 12.57432,-11.35817 c 1.77633,-1.90465 2.095,-5.10968 0.63537,-6.3904 -0.61135,-0.53642 -0.92144,-0.59714 -2.70248,-0.52917 l -2.01192,0.0768 -0.85921,3.57187 c -0.4726,1.96453 -0.86471,3.79209 -0.8714,4.06122 -0.0111,0.4476 0.19259,0.48146 2.38828,0.39688 l 2.40044,-0.0925 z m -169.0697,-42.03237 v -9.12812 h 6.08542 6.08542 v 1.58109 1.5811 l -4.43178,0.0726 -4.43177,0.0725 v 1.98437 1.98438 l 4.44479,0.0726 4.44478,0.0726 -0.0792,1.5149 -0.0792,1.5149 -4.05741,0.0465 c -2.23158,0.0257 -4.22588,0.11112 -4.43178,0.19013 -0.29814,0.1144 -0.37435,0.89947 -0.37435,3.85611 v 3.71248 h -1.5875 -1.5875 z m 24.34167,2.95452 c 0,-3.3955 -0.0815,-6.25509 -0.18104,-6.35465 -0.0996,-0.0996 -0.57819,0.20389 -1.06359,0.67434 l -0.88255,0.85543 -1.11466,-1.11467 -1.11467,-1.11466 2.50376,-2.51423 2.50376,-2.5142 h 1.39428 1.39429 v 9.12812 9.12813 h -1.71979 -1.71979 z m 34.925,-1.35744 v -7.53105 l -2.57969,-0.0757 -2.57969,-0.0757 -0.0793,-1.52136 -0.0794,-1.52135 h 7.02466 7.02466 v 1.57792 1.57792 l -2.57969,0.0757 -2.57968,0.0757 -0.0703,7.47448 -0.0703,7.47448 h -1.71567 -1.71567 z m 18.52083,-1.59708 v -9.12812 h 6.21771 6.2177 v 1.5875 1.5875 h -4.4696 c -5.0315,0 -4.79081,-0.10634 -4.79081,2.11666 0,2.21922 -0.22633,2.11667 4.67172,2.11667 h 4.35052 l -0.0793,1.52135 -0.0794,1.52136 -4.29948,0.0727 c -2.36471,0.04 -4.31427,0.15904 -4.33231,0.26458 -0.13759,0.80396 -0.11134,3.79508 0.0354,4.03249 0.12099,0.19574 1.65473,0.31258 4.52205,0.34446 l 4.33895,0.0483 0.0793,1.52135 0.0794,1.52136 h -6.23091 -6.23091 z m 21.16666,8.99806 c 0,-0.0716 1.50585,-3.85178 3.34635,-8.40052 1.84049,-4.54875 3.47575,-8.60267 3.63392,-9.00872 0.27866,-0.71546 0.34078,-0.73591 2.00975,-0.66146 l 1.72222,0.0768 1.14327,2.77812 c 0.6288,1.52797 1.31717,3.25438 1.52968,3.83646 0.21254,0.58209 0.55238,1.41552 0.75523,1.85209 0.20283,0.43656 1.10382,2.63921 2.00218,4.89479 0.89837,2.25557 1.69466,4.24987 1.76954,4.43177 0.10131,0.24609 -0.33904,0.33073 -1.72088,0.33073 h -1.857 l -0.72925,-1.85873 -0.72924,-1.85875 -3.956,0.0728 -3.956,0.0728 -0.65984,1.78594 -0.65985,1.78594 h -1.82205 c -1.00211,0 -1.82203,-0.0585 -1.82203,-0.13007 z m 11.47443,-6.95717 c 0.2228,-0.36047 -2.14913,-6.00964 -2.52328,-6.00964 -0.19595,0 -0.71374,0.93906 -1.16716,2.11667 -0.4482,1.16417 -0.95506,2.45409 -1.12636,2.86647 -0.17129,0.4124 -0.24402,0.85889 -0.16163,0.99219 0.1824,0.29511 4.79761,0.32691 4.97843,0.0343 z m 15.75559,6.97725 c -0.0606,-0.0605 -0.0774,-4.16817 -0.0373,-9.12813 l 0.073,-9.01813 h 1.94141 1.94138 l 2.00893,4.96093 c 1.1049,2.72852 2.12939,5.28609 2.27666,5.68349 0.40949,1.10522 0.86138,0.67969 1.82456,-1.71825 0.48147,-1.19862 1.49278,-3.6951 2.24743,-5.54771 l 1.37205,-3.36844 2.05052,-0.005 2.05052,-0.005 v 9.14075 9.14074 l -1.65365,-0.0788 -1.65364,-0.0788 -0.0498,-4.85638 c -0.0273,-2.67099 -0.11864,-4.92524 -0.20283,-5.00943 -0.31924,-0.31925 -0.651,0.3642 -3.1193,6.42623 -1.36512,3.35274 -1.42224,3.4417 -2.26174,3.52295 -0.77946,0.0755 -0.89974,-0.0124 -1.26685,-0.92604 -2.96902,-7.38876 -3.72589,-9.07921 -4.06506,-9.07921 -0.18611,0 -0.27921,1.6764 -0.27921,5.02709 v 5.02708 h -1.54342 c -0.84887,0 -1.59301,-0.0495 -1.65365,-0.10999 z M 260.71175,152.12845 c -5.32879,-0.98888 -9.42333,-4.08729 -11.49077,-8.69522 -1.17419,-2.61704 -1.43499,-4.40973 -1.26795,-8.71548 0.18075,-4.65891 0.96755,-7.91752 2.82475,-11.69889 2.01136,-4.09525 4.60828,-6.80035 8.14596,-8.48527 2.59432,-1.23561 4.72095,-1.69262 7.89796,-1.69728 2.28993,-0.003 2.8365,0.0838 3.83646,0.61193 1.24702,0.6586 2.49691,2.35519 2.7625,3.74978 0.14721,0.77298 0.10173,0.8136 -1.73796,1.55168 -4.40328,1.76657 -8.64333,5.57786 -10.55224,9.48515 -1.92929,3.94899 -2.41434,8.16428 -1.23174,10.70422 1.71038,3.67348 5.33678,5.37205 10.68644,5.00536 3.02055,-0.20703 4.48085,-0.4986 7.72139,-1.5418 8.54132,-2.74958 14.15171,-7.70271 16.56151,-14.62127 0.64235,-1.8442 0.73927,-2.52537 0.75297,-5.29167 0.015,-3.02178 -0.0226,-3.24988 -0.77803,-4.72673 -1.01749,-1.98911 -4.32505,-5.15493 -7.30985,-6.99659 -1.21833,-0.75173 -6.73952,-3.61968 -12.26931,-6.37328 -5.52979,-2.75357 -11.08681,-5.642371 -12.34893,-6.419531 -7.99773,-4.92472 -12.12938,-9.409592 -13.97645,-15.171371 -0.84142,-2.624719 -0.84706,-2.678561 -0.70696,-6.746874 0.15903,-4.617879 0.85684,-7.974065 2.33799,-11.244791 2.468,-5.449914 7.07109,-9.919388 13.05268,-12.67378 3.24638,-1.494896 5.99421,-2.27883 12.83229,-3.661013 0.86585,-0.175022 4.72349,-0.300805 9.525,-0.310595 l 8.06979,-0.0164 3.175,0.881989 c 1.89104,0.525303 4.39814,1.482645 6.19958,2.367306 2.56891,1.26156 3.35156,1.805781 5.19501,3.612462 3.43257,3.364098 4.61271,6.207231 4.61271,11.112738 0,4.877303 -1.21031,8.461111 -3.7723,11.170047 -2.42889,2.568178 -5.62707,3.686281 -9.90426,3.462549 -2.74712,-0.143695 -4.68317,-0.895614 -5.32824,-2.069385 -0.34214,-0.622539 -0.24825,-0.755836 2.51167,-3.565684 3.78364,-3.852095 4.72794,-5.611283 4.70008,-8.755909 -0.0163,-1.834277 -0.13416,-2.381859 -0.79344,-3.684905 -2.42109,-4.785202 -6.84397,-6.998653 -13.98032,-6.996457 -4.20708,0 -9.81005,0.863521 -11.93007,1.835865 -0.29104,0.133482 -1.27849,0.567266 -2.19433,0.963983 -3.25069,1.408059 -6.5494,4.331255 -8.33436,7.385552 -2.12826,3.641752 -3.47587,9.871419 -2.85819,13.212763 0.6828,3.693608 3.77537,7.19283 9.53576,10.789602 2.56643,1.602478 5.76972,3.330128 13.6407,7.356948 12.13295,6.207261 15.31911,8.249681 19.57917,12.551021 3.81308,3.85 5.15938,6.79182 5.15938,11.27397 0,6.43252 -2.28297,12.59284 -6.5013,17.54299 -7.25672,8.51566 -21.75196,14.00264 -36.71997,13.89988 -1.91273,-0.0132 -4.31113,-0.17857 -5.32978,-0.36759 z m 171.58229,-2.94992 c -3.2629,-0.41262 -7.31777,-1.63783 -10.18646,-3.0779 -4.84767,-2.43348 -9.7064,-7.21839 -12.95995,-12.76302 -3.30756,-5.63669 -5.90891,-13.66722 -7.17802,-22.15886 -0.30458,-2.03798 -0.57708,-3.10885 -0.7911,-3.10885 -0.44281,0 -1.33371,4.06492 -1.82499,8.32678 -0.21757,1.88762 -0.52983,6.29293 -0.69392,9.78958 -0.16407,3.49668 -0.41603,6.50518 -0.55994,6.68555 -0.14391,0.18036 -1.40896,0.6977 -2.81122,1.14964 -2.22113,0.71583 -2.83163,0.80748 -4.73853,0.71136 -1.65952,-0.0837 -2.36339,-0.23961 -2.91042,-0.64482 -1.20483,-0.89247 -1.87801,-2.13635 -2.0688,-3.82259 -0.0977,-0.86342 -0.25813,-1.61962 -0.35658,-1.68045 -0.0985,-0.0609 -0.70784,0.55287 -1.35422,1.36379 -1.39703,1.75268 -3.43503,3.49618 -4.82224,4.12539 -3.06258,1.38911 -7.04541,-0.61122 -9.03518,-4.53785 -0.37851,-0.74691 -0.81042,-1.35805 -0.95983,-1.35805 -0.14941,0 -0.71294,0.40704 -1.25232,0.90453 -3.74439,3.45369 -9.16612,5.68873 -12.92458,5.32797 -3.46088,-0.33219 -6.50225,-1.99631 -8.04643,-4.40272 -0.42869,-0.66805 -0.77944,-1.34313 -0.77944,-1.50016 0,-0.577 -0.67071,-0.48078 -1.75653,0.25204 -3.12634,2.10995 -7.50921,4.06048 -11.00362,4.89701 -2.71629,0.65024 -7.7714,0.64313 -9.72942,-0.0138 -2.01841,-0.67709 -3.62784,-2.06705 -4.46818,-3.85886 -0.61804,-1.31781 -0.68969,-1.78184 -0.67691,-4.38423 0.008,-1.60073 0.16626,-3.80338 0.352,-4.89479 0.73421,-4.31422 2.76549,-13.67422 3.96191,-18.25625 0.28498,-1.09141 0.43739,-2.07007 0.33869,-2.17482 -0.0987,-0.104751 -2.30058,0.5308 -4.89306,1.41232 -7.1964,2.44705 -9.02671,2.52145 -10.90418,0.44333 -1.2192,-1.3495 -2.78249,-4.576441 -2.84377,-5.870121 l -0.0488,-1.02992 3.83645,-1.28635 c 2.11006,-0.7075 4.07459,-1.39182 4.36563,-1.52069 0.71608,-0.31708 8.31115,-2.845491 10.45104,-3.479168 0.94589,-0.280088 1.98417,-0.648414 2.3073,-0.818489 0.76444,-0.402378 0.95325,-0.982424 3.38993,-10.414635 1.76181,-6.819794 2.10634,-7.648151 4.04165,-9.71714 0.67272,-0.71919 1.70347,-1.588029 2.29056,-1.930744 2.223,-1.297702 8.80422,-2.731029 9.24738,-2.013982 0.1001,0.161978 -0.0549,1.218565 -0.34443,2.347966 -0.28953,1.129427 -0.90357,3.660828 -1.36453,5.625359 -0.46096,1.964531 -1.01659,4.28625 -1.23473,5.159375 -0.49245,1.97096 -1.65025,7.004843 -1.73436,7.540624 -0.082,0.522129 0.1487,0.500196 5.49394,-0.522394 2.47384,-0.473286 5.68853,-0.91948 7.14374,-0.991579 2.42904,-0.120332 2.70545,-0.08377 3.37344,0.446088 1.08114,0.857541 0.97795,1.945085 -0.367,3.868289 -2.21986,3.17428 -4.21554,5.58975 -4.86147,5.88404 -0.36508,0.16634 -1.86326,0.54687 -3.32928,0.84564 -4.00078,0.81531 -9.56516,2.09571 -10.14077,2.33349 -0.57233,0.23638 -0.7195,0.72541 -3.55626,11.816631 -2.85339,11.15624 -2.80008,10.89502 -2.80757,13.75834 -0.006,2.369 0.0579,2.73216 0.61254,3.47109 1.68774,2.24843 4.91123,1.55715 11.54526,-2.47589 l 2.11056,-1.2831 0.30037,-2.23729 c 0.66144,-4.92664 1.36838,-7.29231 3.33055,-11.14509 4.29274,-8.428891 12.67831,-14.507851 20.0128,-14.507851 h 1.7187 l 1.21553,1.31046 c 1.50997,1.6279 2.13653,1.86454 4.93691,1.86454 2.65681,0 3.14679,0.32655 3.44524,2.29603 0.21964,1.449441 -0.18536,5.163031 -0.94712,8.684181 -1.05159,4.86082 -1.26006,5.86589 -1.61896,7.80521 -0.48377,2.61408 -0.4376,7.99491 0.0805,9.38101 0.21516,0.57566 0.68043,1.26257 1.03394,1.52652 0.60508,0.45175 0.71636,0.45479 1.899,0.0518 1.49608,-0.50978 3.8168,-2.6851 5.48452,-5.14091 0.91437,-1.34649 1.21692,-2.11286 1.60655,-4.0694 0.86307,-4.33414 4.59062,-20.115711 5.25637,-22.254261 0.13589,-0.43656 0.72342,-2.69875 1.30561,-5.02708 0.58216,-2.328337 1.9458,-7.745681 3.0303,-12.038545 1.0845,-4.292865 2.24031,-9.094735 2.56844,-10.670858 0.68668,-3.298269 0.64567,-3.260222 3.79331,-3.520043 3.54078,-0.292258 6.09465,0.616612 7.29943,2.597732 1.50344,2.472214 0.48358,8.266986 -3.64691,20.721294 -3.12412,9.41988 -3.68062,11.4186 -3.39008,12.17575 0.13811,0.35992 0.33581,0.31832 1.42052,-0.299 4.304,-2.44951 12.93132,-10.273455 18.12552,-16.437691 1.07236,-1.272619 1.55509,-1.651211 2.10846,-1.653645 1.17243,-0.005 3.58516,1.031531 4.57616,1.96617 1.25637,1.18491 1.2872,2.644697 0.0956,4.527339 -1.63528,2.583687 -9.18948,9.341007 -17.09729,15.293708 -3.13336,2.35868 -2.99064,1.9272 -2.18887,6.61702 0.75398,4.41023 2.51843,10.94841 3.7225,13.79368 0.12319,0.29104 0.49414,1.18401 0.82436,1.98438 2.95111,7.15264 7.53623,12.87589 12.50527,15.60941 2.91917,1.60583 4.95533,2.13971 8.7508,2.29436 7.75809,0.31615 14.1968,-1.76014 19.92286,-6.42453 0.78354,-0.63828 1.52736,-1.16049 1.65293,-1.16049 0.37444,0 0.59645,1.79517 0.414,3.34756 -0.41992,3.57304 -2.90296,6.17974 -7.83458,8.22481 -3.31616,1.3752 -6.83964,1.95681 -12.43542,2.05277 -2.69213,0.0461 -5.31151,0.0312 -5.82083,-0.0332 z m -70.465,-23.12559 c 2.25716,-0.96713 5.01624,-4.35777 5.91376,-7.26742 0.17954,-0.58208 0.41566,-1.17739 0.52469,-1.32291 0.33941,-0.45292 1.55088,-6.02539 1.8469,-8.49522 0.1551,-1.29397 0.30843,-3.72192 0.3407,-5.39541 0.0581,-3.00921 0.0519,-3.04366 -0.56104,-3.13047 -0.34089,-0.0483 -1.39613,0.30893 -2.34498,0.79375 -4.15748,2.12429 -9.10159,8.65021 -11.64021,15.36433 -0.72131,1.9077 -0.95732,2.98127 -1.06551,4.84653 -0.14885,2.56656 0.0903,3.43305 1.23312,4.46725 1.06535,0.96412 3.68014,1.02756 5.75257,0.13957 z m 74.43375,8.57345 c -0.3638,-0.0698 -1.43537,-0.37203 -2.38125,-0.6717 -5.69479,-1.80416 -9.13117,-6.23906 -10.07785,-13.00607 -0.85145,-6.0866 1.80568,-13.16508 6.99117,-18.62404 5.30749,-5.587401 12.0995,-8.709291 17.73904,-8.153591 3.75031,0.36954 7.16709,2.05989 8.75467,4.3311 0.77737,1.11209 0.80226,1.23978 0.80012,4.101041 -0.003,2.62779 -0.0871,3.1719 -0.77263,4.9376 -1.77234,4.56486 -5.05206,7.51766 -10.44134,9.40057 -2.44157,0.85304 -4.74567,1.17107 -8.53056,1.17753 -2.96627,0.005 -3.0838,0.0269 -3.23752,0.60055 -0.47641,1.77768 0.0811,4.75779 1.17165,6.26327 1.08297,1.495 2.58829,2.19868 5.01362,2.34365 3.77886,0.2259 7.57838,-1.27257 11.08967,-4.37359 0.86505,-0.76398 1.74556,-1.38906 1.95664,-1.38906 1.15017,0 3.07735,3.46297 2.71987,4.88733 -0.53602,2.13571 -5.85039,5.7396 -10.84078,7.35155 -2.06295,0.66638 -2.91398,0.79216 -5.85348,0.86522 -1.89177,0.047 -3.73724,0.0284 -4.10104,-0.0413 z m 4.81076,-20.08074 c 4.79324,-1.35876 9.40424,-7.23291 9.8906,-12.60001 0.16732,-1.8465 0.13682,-2.023301 -0.47096,-2.729891 -0.63786,-0.74155 -0.67392,-0.74951 -1.95003,-0.43053 -1.82835,0.45699 -3.4277,1.559821 -5.55207,3.828471 -2.423,2.58752 -2.74463,3.04215 -4.43905,6.27467 -1.45632,2.77828 -2.44803,5.58975 -2.14481,6.08039 0.19941,0.32266 2.89911,0.0779 4.66632,-0.4231 z"
       id="path2523-9" /></g></svg>
