<?xml version="1.0" encoding="UTF-8" standalone="no"?>
<!-- Created with Inkscape (http://www.inkscape.org/) -->

<svg
   width="98.526634mm"
   height="49.216972mm"
   viewBox="0 0 98.526634 49.216972"
   version="1.1"
   id="svg1"
   xml:space="preserve"
   xmlns="http://www.w3.org/2000/svg"
   xmlns:svg="http://www.w3.org/2000/svg"><defs
     id="defs1" /><g
     id="layer1"
     transform="translate(114.40283,-181.96091)"><g
       id="g45230"
       transform="translate(7.6071151,141.00331)"><path
         style="fill:#e7372e"
         d="m -117.28464,90.027851 c -2.50581,-0.76224 -3.49025,-2.78219 -4.39431,-9.01663 -0.43497,-2.99956 -0.44297,-11.05871 -0.0137,-13.80822 0.63707,-4.08049 1.27315,-5.77305 2.65552,-7.0661 1.36661,-1.2783 1.73879,-1.33918 8.17426,-1.33722 5.428,0.002 5.51207,0.007 6.35838,0.40782 1.08517,0.51388 1.83747,1.30574 2.38132,2.50652 0.64298,1.41967 0.64037,1.44271 -0.15784,1.39376 -1.19438,-0.0733 -1.95121,0.78233 -2.71212,3.06604 -0.79221,2.37763 -1.00751,3.84522 -1.11984,7.63311 l -0.10682,3.60215 -4.6621,0.0858 c -5.18347,0.0954 -5.14128,0.0858 -6.0139,1.36784 -0.63697,0.93586 -0.729,1.64307 -0.72607,5.57916 0.002,3.31905 0.0415,3.85895 0.32424,4.48151 0.17679,0.38932 0.40666,0.76052 0.51083,0.8249 0.21326,0.1318 0.25841,0.44777 0.0607,0.42512 -0.0708,-0.008 -0.32212,-0.0736 -0.55858,-0.14552 z m 88.33941,0.0663 c 0,-0.0343 0.18831,-0.33987 0.41846,-0.67902 0.67017,-0.98755 0.82511,-2.19291 0.74744,-5.81484 -0.0763,-3.5571 -0.20817,-4.15601 -1.13212,-5.14032 -0.87347,-0.93054 -1.26857,-0.99943 -5.68608,-0.99144 -2.22155,0.004 -4.18875,-0.0524 -4.37155,-0.1254 -0.30821,-0.12306 -0.33443,-0.33734 -0.36081,-2.94942 -0.0546,-5.40445 -1.02951,-9.42092 -2.62728,-10.82377 -0.51833,-0.45511 -0.69069,-0.51124 -1.34373,-0.43763 -0.84757,0.0955 -0.84862,0.0882 -0.20094,-1.40889 0.52605,-1.21594 1.0976,-1.82972 2.2314,-2.39629 l 1.05898,-0.52918 h 5.54091 c 6.23194,0 6.65686,0.0681 8.09269,1.29712 2.12277,1.81702 3.26138,7.49346 3.07471,15.32868 -0.13214,5.54627 -0.82551,10.0376 -1.87354,12.13609 -0.51587,1.03293 -1.60191,1.96778 -2.6904,2.31586 -0.48298,0.15445 -0.87814,0.25275 -0.87814,0.21845 z m -58.6635,-0.4216 c -9.962464,-0.24566 -24.8663,-0.88229 -26.46084,-1.13031 -0.79248,-0.12326 -1.01958,-0.49993 -0.95034,-1.57622 l 0.052,-0.80893 h 1.88684 c 1.93304,0 5.26958,0.1027 15.351986,0.47252 7.627234,0.27976 42.017514,0.27425 50.430034,-0.008 3.44347,-0.11557 7.92042,-0.26734 9.94878,-0.33728 2.02835,-0.0699 4.3826,-0.12716 5.23168,-0.12716 h 1.54378 l 0.0503,0.85766 c 0.0798,1.35974 -0.0407,1.43451 -2.62328,1.62758 -3.16204,0.23639 -12.93742,0.65937 -18.09649,0.78303 -2.40572,0.0577 -4.64419,0.13291 -4.97439,0.16721 -1.44153,0.14974 -26.02113,0.21236 -31.39012,0.08 z m -4.802854,-5.10305 c -1.55665,-0.029 -7.26862,-0.10816 -12.693266,-0.17596 l -9.86302,-0.12329 -0.0488,-1.64614 c -0.0754,-2.5435 -0.65354,-2.33281 6.73848,-2.45548 3.39631,-0.0564 7.88113,-0.15115 9.966266,-0.21064 4.28157,-0.12216 4.96886,-0.0299 6.757974,0.90717 0.61322,0.32118 1.73246,1.08975 2.48719,1.70792 0.75474,0.61818 1.71541,1.34942 2.13484,1.62498 l 0.76259,0.50102 -1.70601,-0.0384 c -0.9383,-0.0212 -2.97962,-0.0622 -4.536264,-0.0911 z m 33.517934,-0.0793 c 0.17971,-0.12096 0.93657,-0.68307 1.68191,-1.24912 2.42478,-1.84151 3.34678,-2.4442 4.36539,-2.85356 0.92462,-0.37159 1.24618,-0.40271 4.17509,-0.40406 1.74532,-8e-4 6.37665,0.0624 10.29184,0.14045 5.7345,0.11432 7.19356,0.19012 7.50447,0.3899 0.35801,0.23004 0.38594,0.37223 0.38594,1.96472 0,1.22362 -0.0616,1.73581 -0.21441,1.78314 -0.11793,0.0365 -5.92639,0.11421 -12.90768,0.17264 -6.9813,0.0584 -13.34938,0.14439 -14.15129,0.19103 -1.22329,0.0712 -1.40541,0.0494 -1.13126,-0.13514 z m -18.4911,-0.30715 c -0.6618,-0.20489 -1.42831,-0.96029 -1.63724,-1.6135 -0.0931,-0.29105 -0.32609,-1.81635 -0.51778,-3.38956 -0.64591,-5.30126 -1.47094,-8.76404 -2.68393,-11.26488 -0.69069,-1.42402 -0.81961,-1.59184 -1.15167,-1.49914 -1.34245,0.37476 -15.208764,2.5518 -15.745654,2.4721 -0.32129,-0.0477 -0.418,-0.26216 -0.68251,-1.51358 -0.16949,-0.8019 -0.356256,-1.61743 -0.415036,-1.81228 -0.10479,-0.34738 -0.0274,-0.3581 3.978696,-0.55153 2.43186,-0.11741 4.529724,-0.30538 5.182844,-0.46438 1.53151,-0.37285 2.98065,-1.18444 5.75091,-3.22081 l 2.38838,-1.75564 0.72578,-1.54378 c 0.39918,-0.84907 1.38862,-2.957336 2.19876,-4.685023 2.25929,-4.818152 3.02933,-5.838805 4.88602,-6.476247 l 0.62055,-0.213047 v -1.259833 -1.259832 l -2.7005,-0.04723 c -2.66976,-0.04669 -2.70371,-0.05213 -2.98216,-0.477093 -0.31402,-0.479256 -0.23767,-1.97529 0.12299,-2.409857 0.16378,-0.197343 1.4217,-0.239135 7.19796,-0.239135 8.02964,0 7.5386,-0.09922 7.5386,1.523244 0,1.54292 -0.0159,1.551443 -3.00178,1.604422 l -2.57296,0.04565 v 1.2608 1.2608 l 0.84372,0.320271 c 0.99315,0.376994 1.82024,1.117234 2.57438,2.304049 0.29973,0.47171 1.54441,2.976883 2.76594,5.567052 l 2.22096,4.709399 2.46625,1.82957 c 2.77444,2.0582 4.08474,2.77623 5.78641,3.17087 1.24092,0.28779 4.97796,0.57991 7.49684,0.58603 1.46938,0.004 1.50911,0.0142 1.39527,0.37287 -0.0645,0.20307 -0.25144,1.03285 -0.41554,1.84396 -0.21352,1.05546 -0.37648,1.49011 -0.57317,1.5288 -0.2995,0.0589 -7.46994,-1.04163 -12.28409,-1.88539 -1.65788,-0.29056 -3.20729,-0.5377 -3.44314,-0.5492 -0.373,-0.0182 -0.52225,0.16687 -1.14633,1.42124 -1.16639,2.34436 -1.98898,5.98823 -2.62779,11.64036 -0.36061,3.1906 -0.53607,3.73114 -1.42686,4.3957 -0.46068,0.34369 -0.70329,0.36259 -5.06015,0.39427 -2.51695,0.0183 -4.79979,-0.0359 -5.07297,-0.12049 z m 10.87176,-27.52922 c -0.009,-0.623148 -0.60693,-2.53141 -1.05805,-3.37781 -0.65671,-1.232107 -1.4056,-1.911143 -2.87649,-2.608161 -0.97212,-0.460664 -1.30752,-0.531228 -2.49532,-0.524989 -3.20406,0.01683 -5.2907,2.036789 -5.7073,5.524894 l -0.13876,1.161776 6.13922,-0.002 c 3.97878,-10e-4 6.13834,-0.0625 6.1367,-0.17362 z m -30.658604,4.33115 c -0.0939,-0.11793 -0.68224,-1.18602 -1.30748,-2.37353 l -1.1368,-2.159112 v -3.70356 c 0,-3.138166 0.0412,-3.744711 0.26955,-3.97311 0.23867,-0.238678 1.37873,-0.269548 9.954784,-0.269548 h 9.68523 l -0.90276,1.672424 c -0.49651,0.919834 -1.21369,2.251341 -1.59372,2.958905 l -0.69096,1.28648 -6.17405,0.08576 -6.174044,0.08576 -0.0487,1.843955 -0.0487,1.843956 h 3.10187 c 3.354864,0 3.971614,0.13199 4.175644,0.89367 0.15948,0.59535 0.13047,1.32037 -0.0677,1.69057 -0.16839,0.31462 -0.40237,0.33178 -4.524564,0.33178 -3.27221,0 -4.3892,-0.053 -4.51768,-0.21441 z m 39.958104,0.009 c -0.11321,-0.11321 -0.20583,-0.64916 -0.20583,-1.19099 0,-1.49559 0.0632,-1.5192 4.06913,-1.5192 h 3.30668 v -1.884696 -1.884698 l -6.21687,-0.04502 -6.21688,-0.04502 -0.69101,-1.28648 c -0.38006,-0.707564 -1.09726,-2.039071 -1.59378,-2.958905 l -0.90276,-1.672424 h 9.57894 c 8.00154,0 9.63377,0.04009 9.9119,0.243441 0.312,0.228109 0.33297,0.479257 0.33297,3.988088 v 3.744648 l -1.24445,2.254756 c -0.68445,1.24012 -1.36616,2.30146 -1.51492,2.35855 -0.14877,0.0571 -2.10126,0.10379 -4.33888,0.10379 -2.9356,0 -4.12571,-0.0573 -4.27424,-0.20584 z"
         id="path45232" /></g></g></svg>
